# xmcd CD database file
#
# Track frame offsets:
#	187
#	15960
#	31387
#	46627
#	60430
#	74260
#	86862
#	101870
#	115687
#	128360
#	141305
#	153615
#	169157
#	180717
#	193640
#
# Disc length: 2786 seconds
#
# Revision: 0
# Processed by: cddbd v1.4PL0 Copyright (c) Steve Scherf et al.
# Submitted via: CDex 1.50Beta7
#
DISCID=c20ae00f
DTITLE=Sam Taylor - Best Collection [CD1]
DYEAR=1900
DGENRE=Jazz
TTITLE0=Harlem Nocturne
TTITLE1=Danny Boy
TTITLE2=Misty
TTITLE3=Night Train
TTITLE4=Flamingo
TTITLE5=Red Sails In The Sunset
TTITLE6=Lover Come Back To Me
TTITLE7=Ebb Tider
TTITLE8=Cry Me A River
TTITLE9='Round Midnight
TTITLE10=Stardust
TTITLE11=Johnny Guitar
TTITLE12=Summertime
TTITLE13=Deep Purple
TTITLE14=Don't Get Around Much Anymore
EXTD=
EXTT0=
EXTT1=
EXTT2=
EXTT3=
EXTT4=
EXTT5=
EXTT6=
EXTT7=
EXTT8=
EXTT9=
EXTT10=
EXTT11=
EXTT12=
EXTT13=
EXTT14=
PLAYORDER=
